<svg width="16" height="10" viewBox="0 0 16 10" fill="none" xmlns="http://www.w3.org/2000/svg">
<path d="M6.77141 4.21199C7.04834 3.78093 7.20648 3.26666 7.19734 2.7153C7.17284 1.23987 5.94496 0.0673828 4.46928 0.0673828H0.349426C0.15646 0.0673828 0 0.223843 0 0.416809V9.47687C0 9.66983 0.15646 9.82629 0.349426 9.82629H4.95147C6.65955 9.82629 8.07446 8.45728 8.08144 6.7492C8.08573 5.70239 7.56662 4.77431 6.77141 4.21199ZM1.8074 1.87479H4.50446C4.9929 1.87479 5.39032 2.27217 5.39032 2.76064C5.39032 3.24907 4.99294 3.64649 4.50446 3.64649H1.8074V1.87479ZM4.99161 8.01889H1.8074V5.45389H4.50446H4.99157C5.69873 5.45389 6.27407 6.02923 6.27407 6.73639C6.27407 7.44355 5.69877 8.01889 4.99161 8.01889Z" fill="#0067FF"/>
<path d="M16 6.10669C16 3.99704 14.3373 2.28076 12.2934 2.28076C10.2496 2.28076 8.58688 3.99708 8.58688 6.10669C8.58688 8.2163 10.2497 9.93264 12.2934 9.93264C13.5336 9.93264 14.686 9.29689 15.376 8.23197C15.462 8.0992 15.5402 7.96047 15.6095 7.81749C15.6599 7.71369 15.5835 7.5929 15.4681 7.59262L13.6461 7.58808C13.6058 7.58798 13.5676 7.60445 13.5387 7.63255C13.1946 7.96707 12.7728 8.1252 12.2934 8.1252C11.3879 8.1252 10.6289 7.44796 10.4399 6.54511H15.6373C15.8376 6.54511 16 6.38272 16 6.18239V6.10669ZM12.2934 4.08817C12.9566 4.08817 13.5411 4.45159 13.8809 5.00065H10.706C11.0457 4.45159 11.6303 4.08817 12.2934 4.08817Z" fill="#0067FF"/>
<path d="M13.8336 1.83164H10.5461C10.3927 1.83164 10.2683 1.70728 10.2683 1.5539V0.729156C10.2683 0.575767 10.3927 0.451416 10.5461 0.451416H13.8336C13.987 0.451416 14.1113 0.575767 14.1113 0.729156V1.5539C14.1113 1.70732 13.987 1.83164 13.8336 1.83164Z" fill="#0067FF"/>
</svg>
