<svg width="30" height="30" viewBox="0 0 30 30" fill="none" xmlns="http://www.w3.org/2000/svg">
<g clip-path="url(#clip0_373_13072)">
<path d="M15 30C23.2843 30 30 23.2843 30 15C30 6.71573 23.2843 0 15 0C6.71573 0 0 6.71573 0 15C0 23.2843 6.71573 30 15 30Z" fill="#3C5A9A"/>
<path d="M19.8777 4.604H16.5548C14.5829 4.604 12.3896 5.43336 12.3896 8.29171C12.3992 9.28767 12.3896 10.2415 12.3896 11.315H10.1084V14.9451H12.4602V25.3955H16.7818V14.8761H19.6342L19.8923 11.3048H16.7073C16.7073 11.3048 16.7145 9.71613 16.7073 9.25477C16.7073 8.12521 17.8827 8.1899 17.9534 8.1899C18.5127 8.1899 19.6002 8.19153 19.8793 8.1899V4.604H19.8777Z" fill="white"/>
</g>
<defs>
<clipPath id="clip0_373_13072">
<rect width="30" height="30" fill="white"/>
</clipPath>
</defs>
</svg>
