<svg width="25" height="26" viewBox="0 0 25 26" fill="none" xmlns="http://www.w3.org/2000/svg">
<path d="M8.66436 1.68419C5.61936 2.72719 3.02236 5.00919 1.58036 7.88619C1.07636 8.88019 0.712364 9.93719 0.495363 11.0292C-0.0576366 13.7452 0.327363 16.6362 1.58036 19.1142C2.39236 20.7312 3.56136 22.1662 4.97536 23.2862C6.31236 24.3502 7.86636 25.1342 9.51836 25.5752C11.5974 26.1352 13.8164 26.1212 15.9164 25.6452C17.8134 25.2112 19.6054 24.3012 21.0334 22.9852C22.5454 21.5922 23.6234 19.7652 24.1974 17.7982C24.8204 15.6492 24.9044 13.3602 24.5124 11.1622C20.5924 11.1622 16.6724 11.1622 12.7454 11.1622C12.7454 12.7862 12.7454 14.4172 12.7454 16.0412C15.0134 16.0412 17.2884 16.0412 19.5564 16.0412C19.2904 17.6022 18.3664 19.0232 17.0504 19.9052C16.2244 20.4582 15.2794 20.8222 14.2994 20.9902C13.3124 21.1582 12.2974 21.1792 11.3174 20.9832C10.3164 20.7872 9.36436 20.3672 8.53136 19.7792C7.20136 18.8482 6.18636 17.4762 5.66836 15.9432C5.13636 14.3822 5.12936 12.6392 5.66836 11.0782C6.03936 9.97919 6.66236 8.95719 7.48136 8.13119C8.48936 7.09519 9.79837 6.36019 11.2124 6.05919C12.4234 5.80019 13.6974 5.84919 14.8804 6.20619C15.8884 6.51419 16.8124 7.06019 17.5754 7.78819C18.3454 7.02519 19.1084 6.25519 19.8784 5.49219C20.2774 5.07919 20.7044 4.68719 21.0964 4.26019C19.9344 3.18219 18.5624 2.31419 17.0714 1.76819C14.3974 0.767193 11.3664 0.746193 8.66436 1.68419Z" fill="white"/>
<path d="M8.66391 1.68402C11.3659 0.746024 14.3969 0.767025 17.0849 1.76102C18.5759 2.30702 19.9409 3.17502 21.1099 4.25302C20.7179 4.67302 20.2979 5.07202 19.8919 5.48502C19.1219 6.24802 18.3589 7.01802 17.5889 7.78102C16.8259 7.05302 15.9019 6.50002 14.8939 6.19902C13.7109 5.84202 12.4369 5.79303 11.2259 6.05203C9.81191 6.35302 8.50291 7.09502 7.49491 8.12402C6.67591 8.95002 6.05291 9.97202 5.68191 11.071C4.31691 10.014 2.95191 8.95002 1.58691 7.89302C3.02191 5.00902 5.61891 2.72702 8.66391 1.68402Z" fill="#E94435"/>
<path d="M0.495363 11.0292C0.712363 9.93723 1.08336 8.88023 1.58036 7.88623C2.94536 8.94323 4.31036 10.0072 5.67536 11.0642C5.13636 12.6252 5.14336 14.3682 5.67536 15.9292C4.31036 16.9862 2.94536 18.0502 1.58036 19.1072C0.327363 16.6432 -0.0576366 13.7452 0.495363 11.0292Z" fill="#F8BB15"/>
<path d="M12.7521 11.1548C16.6721 11.1548 20.5921 11.1548 24.5191 11.1548C24.9111 13.3528 24.8271 15.6418 24.2041 17.7908C23.6301 19.7578 22.5521 21.5918 21.0401 22.9778C19.7171 21.9488 18.3871 20.9198 17.0711 19.8908C18.3871 19.0158 19.3111 17.5878 19.5771 16.0268C17.3091 16.0268 15.0341 16.0268 12.7661 16.0268C12.7451 14.4098 12.7521 12.7858 12.7521 11.1548Z" fill="#547DBE"/>
<path d="M1.58008 19.114C2.94508 18.057 4.31008 16.993 5.67508 15.936C6.19308 17.476 7.20808 18.841 8.53808 19.772C9.37108 20.36 10.3231 20.773 11.3241 20.976C12.3041 21.172 13.3261 21.151 14.3061 20.983C15.2861 20.815 16.2311 20.451 17.0571 19.898C18.3801 20.927 19.7101 21.956 21.0261 22.985C19.5981 24.308 17.8061 25.211 15.9091 25.645C13.8161 26.121 11.5971 26.135 9.51108 25.575C7.85908 25.134 6.30508 24.35 4.96808 23.286C3.56108 22.159 2.39208 20.724 1.58008 19.114Z" fill="#34A751"/>
</svg>
