<svg width="24" height="18" viewBox="0 0 24 18" fill="none" xmlns="http://www.w3.org/2000/svg">
<path d="M22 2.75H2C1.25 2.75 0.75 2.25 0.75 1.5C0.75 0.75 1.25 0.25 2 0.25H22C22.75 0.25 23.25 0.75 23.25 1.5C23.25 2.25 22.75 2.75 22 2.75Z" fill="#222222"/>
<path d="M22 10.25H2C1.25 10.25 0.75 9.75 0.75 9C0.75 8.25 1.25 7.75 2 7.75H22C22.75 7.75 23.25 8.25 23.25 9C23.25 9.75 22.75 10.25 22 10.25Z" fill="#222222"/>
<path d="M22 17.75H2C1.25 17.75 0.75 17.25 0.75 16.5C0.75 15.75 1.25 15.25 2 15.25H22C22.75 15.25 23.25 15.75 23.25 16.5C23.25 17.25 22.75 17.75 22 17.75Z" fill="#222222"/>
</svg>
