<svg width="16" height="16" viewBox="0 0 16 16" fill="none" xmlns="http://www.w3.org/2000/svg">
<path d="M7.99999 0C3.59381 0 0.0137634 3.58004 0.0137634 7.98623C0.0137634 11.2633 1.96902 14.0723 4.8055 15.3115C4.77795 14.7608 4.8055 14.0723 4.9432 13.4664C5.10845 12.8055 5.96213 9.11531 5.96213 9.11531C5.96213 9.11531 5.71428 8.59209 5.71428 7.84853C5.71428 6.66435 6.40275 5.78312 7.25643 5.78312C7.97244 5.78312 8.33045 6.33389 8.33045 6.99481C8.33045 7.71083 7.86229 8.81237 7.61444 9.8313C7.42168 10.685 8.0275 11.3734 8.88122 11.3734C10.3959 11.3734 11.4148 9.41819 11.4148 7.13248C11.4148 5.36999 10.2306 4.07569 8.0826 4.07569C5.65918 4.07569 4.14458 5.89324 4.14458 7.90356C4.14458 8.59203 4.33734 9.08773 4.6678 9.47326C4.8055 9.6385 4.83305 9.72111 4.77795 9.91387C4.75041 10.0516 4.64025 10.4096 4.61271 10.5472C4.55761 10.74 4.3924 10.8226 4.19964 10.74C3.07055 10.2718 2.57485 9.06016 2.57485 7.68322C2.57485 5.42505 4.47501 2.69872 8.27536 2.69872C11.3321 2.69872 13.3425 4.90183 13.3425 7.27015C13.3425 10.4095 11.6075 12.7504 9.04647 12.7504C8.19275 12.7504 7.36661 12.2822 7.09121 11.759C7.09121 11.759 6.62305 13.6041 6.54045 13.9621C6.3752 14.5679 6.04474 15.2013 5.74182 15.6695C6.45784 15.8898 7.22891 15.9999 7.99999 15.9999C12.4062 15.9999 15.9862 12.4199 15.9862 8.01371C15.9862 3.60753 12.4062 0 7.99999 0Z" fill="#CB1F24"/>
</svg>
