<svg width="18" height="10" viewBox="0 0 18 10" fill="none" xmlns="http://www.w3.org/2000/svg">
<path d="M4.50002 9.49972H5.62499V2.41555C5.2031 2.5348 4.82286 2.75136 4.50002 3.03596V9.49972ZM2.25001 4.7072V9.49181L2.32255 9.49966H3.37498V4.69985H2.32255L2.25001 4.7072ZM0 7.09895C0 7.97028 0.4534 8.7257 1.12497 9.14703V5.05315C0.4534 5.47386 0 6.22935 0 7.09895ZM6.75002 9.49972H7.875V2.72776C7.53862 2.51793 7.15782 2.37959 6.75002 2.32614V9.49972ZM15.6775 4.69991H15.0446C15.0767 4.50416 15.097 4.30558 15.097 4.10026C15.097 2.1118 13.5371 0.500244 11.6129 0.500244C10.5689 0.500244 9.63849 0.980645 9.00003 1.73322V9.49966H15.6775C16.9594 9.49966 18 8.42529 18 7.09889C18 5.77372 16.9594 4.69991 15.6775 4.69991Z" fill="#FF7700"/>
</svg>
