<svg width="16" height="16" viewBox="0 0 16 16" fill="none" xmlns="http://www.w3.org/2000/svg">
<g clip-path="url(#clip0_84_6290)">
<path d="M8 16C12.4183 16 16 12.4183 16 8C16 3.58172 12.4183 0 8 0C3.58172 0 0 3.58172 0 8C0 12.4183 3.58172 16 8 16Z" fill="#039BE5"/>
<path d="M3.66066 7.82668L11.374 4.85268C11.732 4.72335 12.0447 4.94002 11.9287 5.48135L11.9293 5.48068L10.616 11.668C10.5187 12.1067 10.258 12.2134 9.89333 12.0067L7.89333 10.5327L6.92866 11.462C6.82199 11.5687 6.73199 11.6587 6.52533 11.6587L6.66733 9.62335L10.374 6.27468C10.5353 6.13268 10.338 6.05268 10.1253 6.19402L5.54466 9.07802L3.56999 8.46202C3.14133 8.32602 3.13199 8.03335 3.66066 7.82668Z" fill="white"/>
</g>
<defs>
<clipPath id="clip0_84_6290">
<rect width="16" height="16" fill="white"/>
</clipPath>
</defs>
</svg>
