<svg width="16" height="14" viewBox="0 0 16 14" fill="none" xmlns="http://www.w3.org/2000/svg">
<path d="M13.6647 0.00336433C11.446 -0.0773023 9.94733 1.1947 9.15667 3.79936C9.56333 3.61736 9.95867 3.53603 10.3413 3.53603C13.154 3.53603 9.694 8.9727 8.83267 8.9727C7.818 8.9727 7.208 4.1167 7.00133 2.7907C6.714 0.947364 5.948 0.0853643 4.70333 0.206031C4.17733 0.256031 3.38667 0.738698 2.334 1.66003C1.56733 2.36336 0.79 3.06336 0 3.7667L0.752667 4.74803C1.46933 4.24003 1.88733 3.98536 2.00667 3.98536C4.068 3.98536 3.932 14 7.19533 14C10.33 14 15.8473 6.31936 15.9847 3.2407L15.9933 3.23403C16.0827 1.12403 15.3127 0.044031 13.6647 0.00336433Z" fill="#19B2E5"/>
</svg>
